<?xml version="1.0" encoding="UTF-8" standalone="no"?>
<!-- Created with Inkscape (http://www.inkscape.org/) -->

<svg
   xmlns:dc="http://purl.org/dc/elements/1.1/"
   xmlns:cc="http://creativecommons.org/ns#"
   xmlns:rdf="http://www.w3.org/1999/02/22-rdf-syntax-ns#"
   xmlns:svg="http://www.w3.org/2000/svg"
   xmlns="http://www.w3.org/2000/svg"
   xmlns:sodipodi="http://sodipodi.sourceforge.net/DTD/sodipodi-0.dtd"
   xmlns:inkscape="http://www.inkscape.org/namespaces/inkscape"
   width="20.478741cm"
   height="8.0223904cm"
   viewBox="0 0 204.78741 80.223901"
   version="1.1"
   id="svg8"
   inkscape:version="0.92.4 (unknown)"
   sodipodi:docname="Logo_text.svg">
  <title
     id="title10">Snappy Cobra Logo</title>
  <defs
     id="defs2" />
  <sodipodi:namedview
     id="base"
     pagecolor="#ffffff"
     bordercolor="#666666"
     borderopacity="1.0"
     inkscape:pageopacity="0.0"
     inkscape:pageshadow="2"
     inkscape:zoom="1.4142136"
     inkscape:cx="400.63905"
     inkscape:cy="100.54772"
     inkscape:document-units="mm"
     inkscape:current-layer="svg8"
     showgrid="false"
     units="cm"
     inkscape:pagecheckerboard="true"
     inkscape:window-width="1853"
     inkscape:window-height="1025"
     inkscape:window-x="67"
     inkscape:window-y="27"
     inkscape:window-maximized="1" />
  <metadata
     id="metadata5">
    <rdf:RDF>
      <cc:Work
         rdf:about="">
        <dc:format>image/svg+xml</dc:format>
        <dc:type
           rdf:resource="http://purl.org/dc/dcmitype/StillImage" />
        <dc:title>Snappy Cobra Logo</dc:title>
        <dc:creator>
          <cc:Agent>
            <dc:title>Luc van den Brand</dc:title>
          </cc:Agent>
        </dc:creator>
        <dc:description>The logo used by the Snappy Cobra Game Jam Team</dc:description>
        <cc:license
           rdf:resource="" />
      </cc:Work>
    </rdf:RDF>
  </metadata>
  <g
     inkscape:groupmode="layer"
     id="layer4"
     inkscape:label="Snake Tail"
     style="opacity:1"
     transform="translate(-6.7948188,-12.603084)"
     sodipodi:insensitive="true">
    <path
       style="fill:#000003;fill-opacity:1;stroke:#000000;stroke-width:0.26458332px;stroke-linecap:butt;stroke-linejoin:miter;stroke-opacity:1"
       d="m 85.139135,55.918528 -2.173362,-1.464659 -0.944941,-0.661459 -2.031621,-0.14174 -0.425223,-0.8032 -0.755954,-0.992188 -2.551337,1.13393 -1.6064,-0.803201 0.33073,-1.133927 -2.88207,0.236236 -2.126114,-0.755955 -1.039437,0.566965 -1.937126,0.47247 -1.181177,-0.755952 c 0,0 -0.425222,0.236236 -0.897694,0.377976 -0.472469,0.141742 -3.165549,-0.04725 -3.165549,-0.04725 l -0.330729,0.944941 -2.4096,-0.14174 -0.377976,0.236233 -13.229166,1.181177 -1.74814,-0.850448 -1.748139,0.519719 -0.992187,-1.464659 -1.937128,0.377978 -0.09449,-0.850448 c 0,0 0.708705,-1.181176 0.944938,-1.181176 0.236236,0 0.141743,-2.504091 0.141743,-2.504091 l 1.086681,-0.236236 0.992187,-2.315104 0.850448,0.803201 2.409597,-2.267858 1.27567,-0.330729 1.133928,-0.472472 0.708705,-0.188986 0.330729,-0.236236 16.536458,0.283483 v 0.897694 l 1.984375,-0.566965 1.086683,0.897694 0.377976,-1.559153 1.937128,1.039435 3.874254,-1.795386 0.755955,-0.803201 1.748139,1.700892 c 0,0 1.41741,-1.511903 1.086681,-1.41741 -0.33073,0.09449 3.212798,-0.283482 3.212798,-0.283482 l 2.220611,-0.897694 c 0,0 0.992187,0.944941 1.181174,0.850447 0.188989,-0.09449 1.417412,-1.322916 1.417412,-1.322916 l 2.173362,-2.55134 1.13393,0.566965 0.472469,-0.850448 -0.472469,-1.700892 1.55915,-2.267858 -1.370163,-0.897691 0.519718,-0.850448 -2.220611,-2.078868 -1.842635,0.236236 c 0,0 1.322917,-1.181177 0.897694,-1.181177 -0.425222,0 -3.307291,-0.850448 -3.307291,-0.850448 l -1.086681,-1.181174 -1.039434,0.661458 -1.181177,-0.897693 -1.889882,0.519717 -1.748139,-1.086682 -1.795385,1.370164 -0.755955,-0.330729 -0.236233,-1.559152 -1.27567,-0.897693 -1.086681,0.897693 -1.181176,-1.842634 -0.897695,1.086682 -1.322916,0.566964 -1.27567,-0.09449 -1.937126,0.425223 -17.03456,0.715958 -1.155544,-1.141181 -1.559152,1.322917 -0.897695,-2.031622 c 0,0 -0.708705,1.606398 -0.94494,1.653645 -0.236234,0.04725 -2.551338,0.236235 -2.551338,0.236235 l -1.181176,0.708706 -1.700893,-1.133929 -0.850448,1.370164 -1.464656,-1.606399 -2.078868,0.992188 -1.181177,-1.417411 -1.653646,1.842634 -3.921503,0.04725 -0.425223,-1.464658 -2.031622,0.283482 -1.74814,-0.992187 -1.842634,0.992187 -1.181175,-1.464657 -2.126116,1.086681 -1.181176,-1.606399 0.47247,-0.141741 0.472471,-2.362351 2.456845,1.653646 2.031622,-2.22061 0.897693,1.417411 1.181176,-0.472471 3.63802,0.850447 1.559153,-1.700893 3.071056,2.126116 2.598586,-1.889881 4.630209,-0.803199 1.41741,-1.039435 -1.700893,-2.645833 -1.700892,1.700893 -1.984375,-0.141741 -0.472472,-0.8032 -2.315104,0.897694 -0.09449,0.377976 -3.02381,-0.614211 -0.850447,-0.755953 -0.992188,0.09449 -0.614209,1.984375 -3.02381,-2.267857 -0.377976,2.22061 -1.511905,-0.566964 -0.850446,-1.464658 -1.937128,0.188988 -1.74814,1.984375 -1.700893,0.425223 -3.49628,-0.377976 -0.614211,0.708706 -1.8898812,0.188988 -0.5197171,1.322916 -0.1889881,1.653646 -1.984375,1.228423 3.5435264,0.850446 0.519718,2.173364 1.133928,0.283482 2.645833,-0.141742 0.614212,2.173364 1.700893,0.472469 0.755952,-0.566962 1.74814,0.14174 1.039434,-0.850448 1.417411,0.992187 1.700893,0.0945 -0.236235,0.377976 2.83482,1.086681 1.039434,-0.944941 2.929316,0.850448 0.850448,-1.228424 1.322916,0.09449 0.566965,1.13393 1.181175,-0.803201 3.212798,-0.519716 0.708705,1.795386 1.937128,-0.897692 3.496278,0.425223 0.803201,-1.41741 0.614212,0.330729 0.472469,1.370163 1.086681,-0.141742 v -1.842633 l 21.828125,0.992188 1.889881,-0.708705 0.850448,0.850445 1.842632,-0.566965 1.937129,0.566965 1.13393,1.370163 1.464656,-1.511903 0.755952,1.370163 1.511906,0.330729 0.330729,0.992188 0.708705,0.944941 -0.425223,1.606399 -1.322916,0.614209 -1.370164,-1.039434 -1.181176,0.566965 -1.464657,-0.14174 -1.464659,0.708705 -0.519716,-0.803201 -1.13393,1.181176 -2.031622,-1.08668 -0.614211,0.708705 L 58.633555,35.41332 48.56994,35.6968 45.829614,36.405507 h -0.992188 l -0.850447,0.708705 -1.653646,-0.236236 -1.700893,2.173365 -1.984375,-0.236236 -0.614211,1.748139 -3.165552,1.559152 0.04725,1.653646 c 0,0 1.086681,1.559153 0.944938,1.842633 -0.141739,0.283482 -1.181174,0.94494 -1.181174,0.94494 l -0.897694,-2.267857 -0.850445,0.236236 -1.511906,0.661458 -0.04725,1.464659 -0.755952,2.078869 0.803198,1.181174 -0.236235,1.086683 -0.992188,0.377976 0.803201,0.992187 0.425222,1.039435 -0.850447,1.181176 1.322917,1.086681 1.181176,0.04725 -0.803198,1.700892 1.795386,-0.236236 0.755951,0.944941 c 0,0 2.220611,0.944941 2.031622,0.944941 -0.188987,0 0.803201,0.803201 0.803201,0.803201 l -0.04725,-1.795389 1.700893,-0.330729 0.09449,2.645834 0.897694,0.236235 1.228424,-0.992187 0.850444,0.377976 10.394347,-0.661459 3.496278,-0.283482 2.031622,-0.519716 1.984375,-0.377978 1.653646,0.0945 2.031621,0.14174 1.46466,-0.708705 1.417409,0.992187 1.795389,-0.661458 c 0,0 0.519716,0.992187 0.803198,0.992187 0.283483,0 2.227731,-0.315499 2.227731,-0.315499 l 5.2373,-0.818428 5.5279,-0.944941 z"
       id="path4645"
       inkscape:connector-curvature="0" />
    <path
       style="fill:#000000;fill-opacity:1;stroke:#000000;stroke-width:0.26458332px;stroke-linecap:butt;stroke-linejoin:miter;stroke-opacity:1"
       d="m 42.23884,17.648438 1.606399,2.173363 0.661458,0.236235 0.377976,-2.126116 2.126115,-0.803199 -0.614212,1.228422 2.598587,-0.141741 0.944941,-2.031622 -1.653646,-0.236235 -1.086681,0.377976 -2.882069,-0.850446 z"
       id="path4661"
       inkscape:connector-curvature="0" />
    <path
       style="fill:#000000;fill-opacity:1;stroke:#000000;stroke-width:0.26458332px;stroke-linecap:butt;stroke-linejoin:miter;stroke-opacity:1"
       d="m 51.26302,15.853051 0.755952,1.27567 1.937128,0.803199 1.228423,-1.181176 3.02381,0.897694 1.559152,-0.330729 1.606399,1.228422 1.700893,-2.834821 2.787573,2.031622 2.078868,-1.559152 -2.126115,-2.267857 -1.842635,0.566964 -0.850445,1.228423 -2.645833,-1.039435 -0.283482,-0.47247 -2.740327,0.519718 -0.141743,0.708705 -2.315104,0.236235 -0.992187,-1.74814 z"
       id="path4663"
       inkscape:connector-curvature="0" />
    <path
       style="fill:#000000;fill-opacity:1;stroke:#000000;stroke-width:0.26458332px;stroke-linecap:butt;stroke-linejoin:miter;stroke-opacity:1"
       d="m 70.350818,14.671875 0.850445,1.181176 1.370164,0.04725 0.708707,-1.039434 h 0.803198 l 1.511906,0.897693 0.09449,0.992187 2.929315,0.708706 2.078869,-0.236235 v 0.519717 l 2.598586,-0.661458 0.14174,1.275669 1.27567,0.992188 1.039434,-2.55134 -1.039434,-0.519717 -1.228423,0.661459 -2.126115,-1.606399 -0.566965,0.283482 -2.504091,-1.039435 -0.472472,0.850447 -1.559149,-0.566964 -0.236236,-0.944941 -2.267858,-1.133929 -0.377976,0.8032 -2.173364,0.09449 z"
       id="path4665"
       inkscape:connector-curvature="0" />
    <path
       style="fill:#000000;fill-opacity:1;stroke:#000000;stroke-width:0.26458332px;stroke-linecap:butt;stroke-linejoin:miter;stroke-opacity:1"
       d="m 86.84003,17.695685 0.566962,2.126116 1.748142,-1.370164 z"
       id="path4667"
       inkscape:connector-curvature="0" />
  </g>
  <g
     inkscape:label="Snake"
     inkscape:groupmode="layer"
     id="layer1"
     transform="translate(-6.7948188,-209.6031)"
     sodipodi:insensitive="true">
    <path
       style="fill:#000000;fill-opacity:1;stroke:#000000;stroke-width:0.26458332px;stroke-linecap:butt;stroke-linejoin:miter;stroke-opacity:1"
       d="m 55.893228,216.91632 c 0,0 5.349859,-0.68991 9.838466,3.53637 2.5205,2.37319 2.579373,6.45615 2.320233,9.8207 -0.326033,4.23307 -4.868819,11.43615 -4.868819,11.43615 0,0 -1.458243,2.17077 -3.17939,4.46079 -0.778091,1.03526 -3.139999,3.27173 -4.532482,5.10293 -2.093088,2.75255 -3.951019,5.66227 -3.951019,5.66227 0,0 -1.505184,2.56884 -2.182479,4.32718 -0.295472,0.76708 -0.745662,1.91477 -0.939073,2.97662 -0.290917,1.59717 -0.253947,3.04231 -0.253947,3.04231 0,0 0.05701,5.96032 5.14772,9.78462 4.719361,3.54534 7.567278,3.15292 11.303333,2.98354 4.250586,-0.19271 8.424226,-1.55235 11.828208,-4.10529 3.375036,-2.68261 6.558632,-5.76554 7.237643,-9.64458 0.208391,-1.25058 0.117432,-2.8765 -0.259875,-4.08688 -0.320444,-1.02797 -0.840554,-2.15889 -1.618541,-2.9033 -1.202019,-1.15014 -2.86215,-1.87908 -4.444749,-2.39196 -1.575708,-0.51065 -5.6576,-1.19644 -5.6576,-1.19644 l -9.000403,-4.82042 c 8.411724,-2.00972 18.443005,-1.63271 24.517032,3.7276 2.095959,1.93291 3.114777,4.40397 3.646663,7.20509 0.521276,2.74525 0.27053,5.96037 -0.672762,8.59064 -1.640945,4.54533 -3.692943,6.86775 -7.323002,10.05789 -2.486298,1.98192 -3.63017,3.49563 -7.952818,5.07302 -3.212552,1.1723 -6.656671,1.78664 -10.072617,1.9482 -3.709068,0.17542 -7.541884,0.0436 -11.087774,-1.07372 -3.072809,-0.96828 -6.066319,-2.61002 -8.472493,-4.78491 -1.915666,-1.73153 -3.475342,-3.94416 -4.469478,-6.32737 -1.564114,-3.7496 -1.596738,-6.33612 -1.306123,-9.17203 0.31204,-3.04498 1.416089,-4.41196 3.296934,-8.87881 1.261633,-2.99627 3.153353,-6.03058 3.943323,-8.36398 0.593412,-1.75281 1.028499,-3.55783 1.429639,-5.36436 0.280451,-1.26301 0.785939,-2.61137 0.894815,-3.93083 0.187085,-2.26728 0.09947,-4.58209 0.09947,-4.58209 0,0 -0.04103,-2.6575 -0.03795,-4.14746 0.0034,-1.63156 -0.212612,-4.89007 -0.212612,-4.89007 0,0 -1.123153,-1.06657 -1.27567,-1.84263 -0.127332,-0.64791 0.352314,-2.02437 0.352314,-2.02437 l 0.238275,-1.5664 c 0,0 0.598734,-0.97297 0.919607,-1.45055 0.345082,-0.51361 0.710415,-1.715 0.710415,-1.715 0,0 1.780519,-1.0717 2.781384,-1.16593 1.108112,-0.10432 3.266234,0.69346 3.266234,0.69346 z"
       id="path43"
       inkscape:connector-curvature="0"
       sodipodi:nodetypes="csscsscsscssccssscccsccsssssssssscscsccscscc" />
  </g>
  <g
     inkscape:groupmode="layer"
     id="layer3"
     inkscape:label="Snake Light"
     style="display:inline"
     transform="translate(-6.7948188,-12.603084)"
     sodipodi:insensitive="true">
    <path
       style="fill:#ffffff;fill-opacity:1;stroke:#000000;stroke-width:0.26499999;stroke-linecap:butt;stroke-linejoin:bevel;stroke-miterlimit:4;stroke-dasharray:none;stroke-opacity:1"
       d="m 52.148903,24.918574 -0.277578,0.832728 1.293388,0.0059 0.4016,0.738235 0.307104,-1.051246 2.096587,-0.555153 -1.452844,-0.135835 1.671362,-0.124026 0.767765,0.815012 2.185175,-0.933129 -2.090681,0.4016 -0.944941,-0.696894 -0.87407,0.106306 -0.354354,-0.519718 0.685083,-0.614211 0.106307,-0.531529 -1.240234,-0.425223 0.566962,0.6024 -0.05906,0.507905 -0.909506,0.2008 -1.754047,0.87407 -0.437033,0.283483 -0.655553,-0.08268 0.05906,-0.956753 0.74414,-0.803199 1.299295,-0.212612 0.08268,-0.366164 -0.283482,0.141741 -1.41741,0.09449 -0.649648,0.885882 -0.236236,0.318917 -0.106304,0.6024 -1.051248,0.07087 -0.519715,-0.354352 1.063056,-1.240235 0.755954,-0.08268 1.169363,-1.393787 1.452846,-0.626023 0.614211,-0.165365 0.968563,0.118118 0.236236,-0.531529 -0.673269,0.224423 -0.897694,-0.05906 0.02363,-0.47247 -1.240235,0.177177 0.803199,0.248046 -0.307105,0.366165 -0.862258,0.212611 -0.862259,0.626023 -0.413411,0.732329 -0.815012,0.12993 -1.145739,1.275669 -0.472471,0.519718 0.283482,0.389787 0.484283,0.106306 0.188986,0.236235 -0.318915,0.67327 -0.141743,0.318918 -0.838634,-0.295294 0.708705,0.755952 -1.003998,1.086682 0.720516,1.122116 0.590587,-0.118118 0.921319,0.401601 2.539526,-0.389787 3.319103,-1.287484 3.838821,-0.933127 2.397786,-0.8032 1.405599,-0.307105 1.8072,0.897693 -2.267858,-1.358352 -4.145925,1.252046 -4.29948,1.181177 -2.445033,0.909505 -2.350539,0.106304 -0.53153,-0.188986 -1.039434,-0.141743 0.779576,-1.051245 0.460658,0.259858 0.448847,0.767765 0.590588,-0.507907 0.637833,-0.448845 0.815012,0.519716 -0.838634,-0.838634 -1.039434,0.673269 -0.496094,-0.566965 0.992188,-0.425222 0.614211,-0.626023 0.383881,-0.336635 z"
       id="path4554"
       inkscape:connector-curvature="0"
       sodipodi:nodetypes="cccccccccccccccccccccccccccccccccccccccccccccccccccccccccccccccccccccccccccccccccccccccccc" />
    <path
       style="fill:#000000;fill-opacity:1;stroke:#000000;stroke-width:0.26458332px;stroke-linecap:butt;stroke-linejoin:miter;stroke-opacity:1"
       d="m 49.895878,24.905615 -0.501128,0.868626 0.02506,0.417609 1.018966,-0.325735 0.501128,-0.801809 -0.02506,-0.150339 z"
       id="path4556"
       inkscape:connector-curvature="0" />
    <path
       style="fill:#ffffff;fill-opacity:1;stroke:#000000;stroke-width:0.26458332px;stroke-linecap:butt;stroke-linejoin:miter;stroke-opacity:1"
       d="m 55.558652,20.77129 c 0,0 0.367496,0.701582 0.334087,0.785104 -0.03341,0.08352 1.920999,0.11693 1.920999,0.11693 l -1.570207,-0.317382 z"
       id="path4558"
       inkscape:connector-curvature="0" />
    <path
       style="fill:#ffffff;fill-opacity:1;stroke:#000000;stroke-width:0.26458332px;stroke-linecap:butt;stroke-linejoin:miter;stroke-opacity:1"
       d="m 59.751443,21.456168 -1.386461,0.567948 0.985557,1.035669 -0.03341,0.801809 0.417608,-0.952148 -0.668174,-0.618061 z"
       id="path4560"
       inkscape:connector-curvature="0" />
    <path
       style="fill:#ffffff;fill-opacity:1;stroke:#000000;stroke-width:0.26458332px;stroke-linecap:butt;stroke-linejoin:miter;stroke-opacity:1"
       d="m 56.210123,22.558655 1.403164,0.534539 -1.77066,0.50113 0.902033,-0.551243 z"
       id="path4562"
       inkscape:connector-curvature="0" />
    <path
       style="fill:#ffffff;fill-opacity:1;stroke:#000000;stroke-width:0.16500001;stroke-linecap:butt;stroke-linejoin:bevel;stroke-miterlimit:4;stroke-dasharray:none;stroke-opacity:1"
       d="m 66.59468,27.239584 -0.590587,0.897694 0.803198,1.511904 -0.661459,1.748139 0.897695,-0.307105 -0.425225,1.370163 0.307107,0.944941 -0.519719,1.937129 -0.826823,1.417409 0.283483,0.661459 -0.73233,1.086681 -0.448844,1.181176 -0.755954,1.133928 -0.803199,1.417412 0.708705,-0.141742 -1.110305,1.27567 -0.590587,0.685083 -0.968566,1.063056 2.220611,-1.275668 -0.566965,-0.283482 1.653646,-1.937128 -0.637834,0.09449 1.322917,-1.984375 0.118118,-0.897694 1.181174,-1.535528 -0.496094,-0.448847 1.110306,-1.582775 -0.259858,-0.755951 0.732329,-1.653646 -0.54334,-0.330729 0.590587,-1.653646 -0.874069,-0.118118 0.661458,-1.606399 -0.897694,-1.063059 z"
       id="path4564"
       inkscape:connector-curvature="0" />
    <path
       style="fill:#ffffff;fill-opacity:1;stroke:#000000;stroke-width:0.16500001;stroke-linecap:butt;stroke-linejoin:bevel;stroke-miterlimit:4;stroke-dasharray:none;stroke-opacity:1"
       d="m 60.925037,45.784039 -1.724517,1.960753 0.614212,0.236236 -2.456847,2.69308 -0.779574,0.283482 0.259858,0.401598 -0.944941,0.944941 -0.850447,1.653646 1.582777,-2.007997 0.803198,-0.921319 h -0.354351 l 1.133928,-0.779576 2.055246,-2.43322 -0.614212,-0.212613 1.393788,-1.55915 z"
       id="path4566"
       inkscape:connector-curvature="0" />
    <path
       style="fill:#ffffff;fill-opacity:1;stroke:#000000;stroke-width:0.16500001;stroke-linecap:butt;stroke-linejoin:bevel;stroke-miterlimit:4;stroke-dasharray:none;stroke-opacity:1"
       d="m 53.687765,28.572219 -0.167042,0.467722 3.908817,0.267269 -0.334087,-1.135896 z"
       id="path4568"
       inkscape:connector-curvature="0" />
    <path
       style="fill:#ffffff;fill-opacity:1;stroke:#000000;stroke-width:0.16500001;stroke-linecap:butt;stroke-linejoin:bevel;stroke-miterlimit:4;stroke-dasharray:none;stroke-opacity:1"
       d="m 53.220045,29.808342 0.434311,0.734991 3.541324,0.567947 -0.467723,-1.002261 z"
       id="path4570"
       inkscape:connector-curvature="0" />
    <path
       style="fill:#ffffff;fill-opacity:1;stroke:#000000;stroke-width:0.16500001;stroke-linecap:butt;stroke-linejoin:bevel;stroke-miterlimit:4;stroke-dasharray:none;stroke-opacity:1"
       d="m 53.086409,31.612411 0.100227,0.968851 3.875408,0.567947 -0.367496,-1.035669 z"
       id="path4572"
       inkscape:connector-curvature="0" />
    <path
       style="fill:#ffffff;fill-opacity:1;stroke:#000000;stroke-width:0.16500001;stroke-linecap:butt;stroke-linejoin:bevel;stroke-miterlimit:4;stroke-dasharray:none;stroke-opacity:1"
       d="m 52.785732,33.817382 0.267268,0.968854 3.441095,0.46772 c 0,0 0.267271,-1.102484 -0.03341,-1.169302 -0.30068,-0.06682 -3.006783,-0.7684 -3.006783,-0.7684 z"
       id="path4574"
       inkscape:connector-curvature="0" />
    <path
       style="fill:#ffffff;fill-opacity:1;stroke:#000000;stroke-width:0.16500001;stroke-linecap:butt;stroke-linejoin:bevel;stroke-miterlimit:4;stroke-dasharray:none;stroke-opacity:1"
       d="m 52.618687,36.155992 0.167045,0.968851 3.708363,0.534541 L 56.059784,36.256219 53.053,35.855314 Z"
       id="path4576"
       inkscape:connector-curvature="0" />
    <path
       style="fill:#ffffff;fill-opacity:1;stroke:#000000;stroke-width:0.16500001;stroke-linecap:butt;stroke-linejoin:bevel;stroke-miterlimit:4;stroke-dasharray:none;stroke-opacity:1"
       d="m 52.919365,38.260739 -0.300678,0.935442 3.908816,0.701583 0.133636,-0.835216 -2.037929,-0.968851 z"
       id="path4578"
       inkscape:connector-curvature="0" />
    <path
       style="fill:#ffffff;fill-opacity:1;stroke:#000000;stroke-width:0.16500001;stroke-linecap:butt;stroke-linejoin:bevel;stroke-miterlimit:4;stroke-dasharray:none;stroke-opacity:1"
       d="m 52.084149,40.131626 0.300678,0.935443 2.906556,1.035669 1.135896,-1.202711 -1.637027,-0.501132 z"
       id="path4580"
       inkscape:connector-curvature="0" />
    <path
       style="fill:#ffffff;fill-opacity:1;stroke:#000000;stroke-width:0.16500001;stroke-linecap:butt;stroke-linejoin:bevel;stroke-miterlimit:4;stroke-dasharray:none;stroke-opacity:1"
       d="m 51.315749,41.133887 -0.467722,1.135896 1.971114,1.23612 3.407685,0.400904 -2.338607,-1.637024 z"
       id="path4582"
       inkscape:connector-curvature="0" />
    <path
       style="fill:#ffffff;fill-opacity:1;stroke:#000000;stroke-width:0.16500001;stroke-linecap:butt;stroke-linejoin:bevel;stroke-miterlimit:4;stroke-dasharray:none;stroke-opacity:1"
       d="m 50.313489,45.209748 -0.400905,1.202711 c 0,0 5.378799,1.703845 5.245164,1.77066 -0.133633,0.06682 -2.171565,-1.135893 -2.171565,-1.135893 v -0.868627 z"
       id="path4584"
       inkscape:connector-curvature="0" />
    <path
       style="fill:#ffffff;fill-opacity:1;stroke:#000000;stroke-width:0.16500001;stroke-linecap:butt;stroke-linejoin:bevel;stroke-miterlimit:4;stroke-dasharray:none;stroke-opacity:1"
       d="m 50.647576,43.238634 -0.100227,1.30294 2.706102,0.835216 2.739515,0.634764 -2.238383,-1.302938 z"
       id="path4586"
       inkscape:connector-curvature="0" />
    <path
       style="fill:#ffffff;fill-opacity:1;stroke:#000000;stroke-width:0.16500001;stroke-linecap:butt;stroke-linejoin:bevel;stroke-miterlimit:4;stroke-dasharray:none;stroke-opacity:1"
       d="m 49.378044,47.14745 -0.267269,1.269532 4.977895,2.037929 -1.670434,-1.503391 -0.03341,-0.434314 z"
       id="path4588"
       inkscape:connector-curvature="0" />
    <path
       style="fill:#ffffff;fill-opacity:1;stroke:#000000;stroke-width:0.16500001;stroke-linecap:butt;stroke-linejoin:bevel;stroke-miterlimit:4;stroke-dasharray:none;stroke-opacity:1"
       d="m 48.509419,49.185382 -0.300677,1.202711 4.610399,1.80407 -1.536801,-1.069078 0.100227,-0.801809 z"
       id="path4590"
       inkscape:connector-curvature="0" />
    <path
       style="fill:#ffffff;fill-opacity:1;stroke:#000000;stroke-width:0.16500001;stroke-linecap:butt;stroke-linejoin:bevel;stroke-miterlimit:4;stroke-dasharray:none;stroke-opacity:1"
       d="m 47.573975,51.25672 c 0,0 -0.534538,1.135896 -0.367496,1.236121 0.167045,0.100226 5.378799,1.937705 5.378799,1.937705 l -2.104747,-1.536801 0.200453,-0.501129 z"
       id="path4592"
       inkscape:connector-curvature="0" />
    <path
       style="fill:#ffffff;fill-opacity:1;stroke:#000000;stroke-width:0.16500001;stroke-linecap:butt;stroke-linejoin:bevel;stroke-miterlimit:4;stroke-dasharray:none;stroke-opacity:1"
       d="m 46.605123,53.328059 -0.567946,1.135896 2.53906,1.202713 3.04019,0.801807 1.904296,-0.835216 -2.505652,0.23386 -2.004523,-1.102487 -0.06681,-0.7684 z"
       id="path4594"
       inkscape:connector-curvature="0" />
    <path
       style="fill:#ffffff;fill-opacity:1;stroke:#000000;stroke-width:0.16500001;stroke-linecap:butt;stroke-linejoin:bevel;stroke-miterlimit:4;stroke-dasharray:none;stroke-opacity:1"
       d="m 45.836723,55.633259 c -0.167042,0.167043 -0.434314,1.002261 -0.434314,1.002261 l 1.904297,1.23612 4.34313,0.801809 0.501131,-0.935442 -1.202714,0.367495 -3.107007,-0.801809 0.200451,-0.7684 -1.00226,0.300678 -0.868627,-0.534538 z"
       id="path4596"
       inkscape:connector-curvature="0" />
    <path
       style="fill:#ffffff;fill-opacity:1;stroke:#000000;stroke-width:0.16500001;stroke-linecap:butt;stroke-linejoin:bevel;stroke-miterlimit:4;stroke-dasharray:none;stroke-opacity:1"
       d="m 50.647576,59.775936 -0.902036,0.968851 -5.479024,-1.870884 0.601356,-1.536801 0.534537,1.302938 1.369759,-0.167042 0.03341,0.868624 2.57247,0.734992 z"
       id="path4598"
       inkscape:connector-curvature="0" />
    <path
       style="fill:#ffffff;fill-opacity:1;stroke:#000000;stroke-width:0.16500001;stroke-linecap:butt;stroke-linejoin:bevel;stroke-miterlimit:4;stroke-dasharray:none;stroke-opacity:1"
       d="m 49.645315,61.74705 -0.902036,1.102484 -1.469982,-0.501128 z"
       id="path4600"
       inkscape:connector-curvature="0" />
    <path
       style="fill:#ffffff;fill-opacity:1;stroke:#000000;stroke-width:0.16500001;stroke-linecap:butt;stroke-linejoin:bevel;stroke-miterlimit:4;stroke-dasharray:none;stroke-opacity:1"
       d="m 46.003768,60.343883 -0.634767,1.236122 -2.004521,-0.902033 0.534541,-1.069078 z"
       id="path4602"
       inkscape:connector-curvature="0" />
    <path
       style="fill:#ffffff;fill-opacity:1;stroke:#000000;stroke-width:0.16500001;stroke-linecap:butt;stroke-linejoin:bevel;stroke-miterlimit:4;stroke-dasharray:none;stroke-opacity:1"
       d="m 48.342375,63.684752 -0.400905,0.935445 -3.80859,-0.835218 -1.670433,-1.169305 0.501129,-1.202713 2.171565,0.801809 -0.334087,1.169305 c 0,0 2.104747,0.634764 2.271792,0.634764 0.167042,0 1.269529,-0.334087 1.269529,-0.334087 z"
       id="path4604"
       inkscape:connector-curvature="0" />
    <path
       style="fill:#ffffff;fill-opacity:1;stroke:#000000;stroke-width:0.16500001;stroke-linecap:butt;stroke-linejoin:bevel;stroke-miterlimit:4;stroke-dasharray:none;stroke-opacity:1"
       d="m 47.70761,65.455413 -0.133635,0.668173 -3.841999,-0.734991 -2.372016,-0.968851 0.534538,-1.069078 1.369755,0.7684 0.968854,0.434314 v 0.467719 l 2.438834,0.634768 z"
       id="path4606"
       inkscape:connector-curvature="0" />
    <path
       style="fill:#ffffff;fill-opacity:1;stroke:#000000;stroke-width:0.16500001;stroke-linecap:butt;stroke-linejoin:bevel;stroke-miterlimit:4;stroke-dasharray:none;stroke-opacity:1"
       d="m 40.992464,65.121326 -0.567949,1.469983 -0.567947,3.006783 -0.03341,2.539061 1.069078,0.835215 2.004521,0.7684 1.804069,0.434314 2.104747,0.03341 0.601358,-0.902036 0.23386,-0.835216 -0.868624,0.734992 -1.77066,0.267269 -2.071341,-0.935445 -0.400905,-0.768398 0.367496,-0.567949 1.202714,0.7684 1.837478,0.400905 0.567946,-0.267269 0.835219,-1.069078 -1.135896,0.501128 -1.336347,0.06682 -1.670434,-0.701582 -0.53454,-0.400905 -0.133636,-0.23386 v -0.668173 l 2.539061,0.7684 h 1.269531 l 0.868625,-0.668176 -0.03341,-0.668173 -0.902033,0.7684 -2.204974,-0.334087 -1.302938,-0.534537 0.467719,-1.469983 2.004523,0.801806 1.302938,0.133636 1.102487,-1.302938 -0.935442,-0.133636 -0.467722,0.835219 -2.405425,-0.601359 -0.634765,-0.434311 0.133633,-0.835218 -0.668173,0.167042 z"
       id="path4608"
       inkscape:connector-curvature="0" />
    <path
       style="fill:#ffffff;fill-opacity:1;stroke:#000000;stroke-width:0.16500001;stroke-linecap:butt;stroke-linejoin:bevel;stroke-miterlimit:4;stroke-dasharray:none;stroke-opacity:1"
       d="m 42.829942,74.575987 -2.706105,-1.236123 0.167045,1.77066 0.400904,1.503392 0.200451,0.902036 3.073599,0.868624 -1.336347,0.367496 -1.503392,-0.534538 0.902036,1.670434 3.107008,0.868627 4.10927,0.501129 1.670433,-0.267269 -1.436573,-0.267269 -4.911077,-0.7684 -0.133636,-1.236123 4.744035,-0.300678 0.100227,-0.968851 -0.968854,0.634764 -3.708363,-0.06682 -0.868627,-0.567947 3.908816,-0.400905 0.400905,-1.00226 -2.80633,0.7684 -1.503391,-0.167044 -0.367496,-0.835218 2.171565,0.167044 2.405425,-0.668173 V 74.2419 l -1.00226,0.835215 -2.672694,0.200454 -1.436574,-0.300678 z"
       id="path4610"
       inkscape:connector-curvature="0" />
    <path
       style="fill:#ffffff;fill-opacity:1;stroke:#000000;stroke-width:0.16500001;stroke-linecap:butt;stroke-linejoin:bevel;stroke-miterlimit:4;stroke-dasharray:none;stroke-opacity:1"
       d="m 50.51394,82.427029 1.469982,-0.267269 -0.233859,0.868624 0.634764,1.202714 0.868624,-1.102487 -0.200451,1.670434 0.668174,0.567949 1.00226,-0.200454 -0.03341,0.668174 0.434314,0.701582 0.968854,-1.102487 0.200451,1.269532 c 0,0 0.634764,0.868627 0.801809,0.835218 0.167042,-0.03341 1.169305,-0.7684 1.169305,-0.7684 l 0.133633,1.169304 1.169305,-0.06682 c 0,0 0.534537,-0.200454 0.567946,-0.03341 0.03341,0.167042 0.100227,1.069078 0.100227,1.069078 l 0.902036,-0.334087 0.701582,-0.267271 -0.06682,0.601358 0.434313,0.501128 1.23612,-0.467719 -0.133636,0.7684 1.035672,0.133633 1.536798,-0.100227 1.069078,0.400905 c 0,0 -2.472243,0.133636 -2.839738,0.200453 -0.367496,0.06682 -2.772921,-0.701582 -2.772921,-0.701582 l -1.837474,-0.20045 -0.601356,-0.835215 -1.269532,-0.233863 -1.603615,-0.534537 v -0.80181 l -2.33861,-0.100226 0.267272,-0.768401 -1.503392,0.434314 -3.073601,-0.367496 -2.839739,-0.935442 -0.167042,-0.467722 c 0,0 3.841999,0.53454 4.04245,0.634764 0.200454,0.100227 2.305201,0.267272 2.305201,0.267272 l -0.701583,-0.80181 c 0,0 -1.236122,-0.23386 -1.436573,-0.133635 -0.200451,0.100226 -2.33861,0.03341 -2.772921,0.06682 -0.434313,0.03341 -3.207234,-0.968851 -3.207234,-0.968851 l -0.200454,-0.668173 2.505652,0.167042 1.703843,0.7684 2.338609,-0.167042 -0.23386,-0.567949 -3.741774,-0.300678 -2.906556,-0.835218 -1.269529,-1.035669 0.233859,-0.300678 2.839739,0.634764 1.703843,0.501132 2.238382,0.23386 z"
       id="path4612"
       inkscape:connector-curvature="0" />
    <path
       style="fill:#ffffff;fill-opacity:1;stroke:#000000;stroke-width:0.16500001;stroke-linecap:butt;stroke-linejoin:bevel;stroke-miterlimit:4;stroke-dasharray:none;stroke-opacity:1"
       d="m 50.346898,87.471741 4.409945,0.167042 -0.835215,0.567949 z"
       id="path4614"
       inkscape:connector-curvature="0" />
    <path
       style="fill:#ffffff;fill-opacity:1;stroke:#000000;stroke-width:0.16500001;stroke-linecap:butt;stroke-linejoin:bevel;stroke-miterlimit:4;stroke-dasharray:none;stroke-opacity:1"
       d="m 54.255714,88.975133 2.372016,0.03341 1.069078,0.133633 -1.302938,0.233862 z"
       id="path4616"
       inkscape:connector-curvature="0" />
    <path
       style="fill:#ffffff;fill-opacity:1;stroke:#000000;stroke-width:0.16500001;stroke-linecap:butt;stroke-linejoin:bevel;stroke-miterlimit:4;stroke-dasharray:none;stroke-opacity:1"
       d="m 61.872894,28.104496 c -0.167042,0.267272 0.03341,1.436574 0.03341,1.436574 l 0.601358,-0.835215 -0.300678,-1.135896 z"
       id="path4618"
       inkscape:connector-curvature="0" />
    <path
       style="fill:#ffffff;fill-opacity:1;stroke:#000000;stroke-width:0.16500001;stroke-linecap:butt;stroke-linejoin:bevel;stroke-miterlimit:4;stroke-dasharray:none;stroke-opacity:1"
       d="m 64.278321,29.30721 -0.100226,0.968851 0.7684,-0.267268 z"
       id="path4620"
       inkscape:connector-curvature="0" />
    <path
       style="fill:#ffffff;fill-opacity:1;stroke:#000000;stroke-width:0.16500001;stroke-linecap:butt;stroke-linejoin:bevel;stroke-miterlimit:4;stroke-dasharray:none;stroke-opacity:1"
       d="m 63.676963,31.445366 -0.534538,0.868627 0.668174,0.100225 -0.03341,-0.835216 z"
       id="path4622"
       inkscape:connector-curvature="0" />
    <path
       style="fill:#ffffff;fill-opacity:1;stroke:#000000;stroke-width:0.16500001;stroke-linecap:butt;stroke-linejoin:bevel;stroke-miterlimit:4;stroke-dasharray:none;stroke-opacity:1"
       d="m 62.741521,33.65034 -0.334087,0.801809 0.935442,0.200451 z"
       id="path4624"
       inkscape:connector-curvature="0" />
    <path
       style="fill:#ffffff;fill-opacity:1;stroke:#000000;stroke-width:0.16500001;stroke-linecap:butt;stroke-linejoin:bevel;stroke-miterlimit:4;stroke-dasharray:none;stroke-opacity:1"
       d="m 61.906303,35.68827 -0.567947,1.202713 0.868627,-0.03341 z"
       id="path4626"
       inkscape:connector-curvature="0" />
    <path
       style="fill:#ffffff;fill-opacity:1;stroke:#000000;stroke-width:0.16500001;stroke-linecap:butt;stroke-linejoin:bevel;stroke-miterlimit:4;stroke-dasharray:none;stroke-opacity:1"
       d="m 65.113537,31.411957 -0.46772,0.768401 0.668173,0.501131 z"
       id="path4628"
       inkscape:connector-curvature="0" />
    <path
       style="fill:#ffffff;fill-opacity:1;stroke:#000000;stroke-width:0.16500001;stroke-linecap:butt;stroke-linejoin:bevel;stroke-miterlimit:4;stroke-dasharray:none;stroke-opacity:1"
       d="m 65.280582,34.552374 -0.634765,0.601358 0.701582,0.501129 z"
       id="path4630"
       inkscape:connector-curvature="0" />
    <path
       style="fill:#ffffff;fill-opacity:1;stroke:#000000;stroke-width:0.26458332px;stroke-linecap:butt;stroke-linejoin:miter;stroke-opacity:1"
       d="m 63.676963,26.400654 1.770661,0.734991 -0.03341,-0.434313 z"
       id="path4632"
       inkscape:connector-curvature="0" />
    <path
       style="fill:#ffffff;fill-opacity:1;stroke:#000000;stroke-width:0.16500001;stroke-linecap:butt;stroke-linejoin:bevel;stroke-miterlimit:4;stroke-dasharray:none;stroke-opacity:1"
       d="m 62.318822,39.949032 -2.126114,2.126118 2.267857,-1.322917 z"
       id="path4634"
       inkscape:connector-curvature="0" />
    <path
       style="fill:#ffffff;fill-opacity:1;stroke:#000000;stroke-width:0.16500001;stroke-linecap:butt;stroke-linejoin:bevel;stroke-miterlimit:4;stroke-dasharray:none;stroke-opacity:1"
       d="m 59.578496,44.862723 -2.409598,2.69308 2.456845,-1.889879 z"
       id="path4636"
       inkscape:connector-curvature="0" />
    <path
       style="fill:#ffffff;fill-opacity:1;stroke:#000000;stroke-width:0.16500001;stroke-linecap:butt;stroke-linejoin:bevel;stroke-miterlimit:4;stroke-dasharray:none;stroke-opacity:1"
       d="m 49.751114,29.885417 0.283483,2.88207 1.27567,-2.88207 -0.897694,0.944941 z"
       id="path4638"
       inkscape:connector-curvature="0" />
    <path
       style="fill:#ffffff;fill-opacity:1;stroke:#000000;stroke-width:0.16500001;stroke-linecap:butt;stroke-linejoin:bevel;stroke-miterlimit:4;stroke-dasharray:none;stroke-opacity:1"
       d="m 49.892857,34.751862 0.04725,1.039434 1.464656,1.370163 -0.992187,-1.511906 z"
       id="path4640"
       inkscape:connector-curvature="0" />
    <path
       style="fill:#ffffff;fill-opacity:1;stroke:#000000;stroke-width:0.16500001;stroke-linecap:butt;stroke-linejoin:bevel;stroke-miterlimit:4;stroke-dasharray:none;stroke-opacity:1"
       d="m 49.892857,38.295386 -0.188989,1.748142 0.425225,1.275667 0.04725,-1.22842 z"
       id="path4642"
       inkscape:connector-curvature="0" />
    <path
       style="fill:#fffffa;fill-opacity:1;stroke:none;stroke-width:0;stroke-linecap:butt;stroke-linejoin:miter;stroke-miterlimit:4;stroke-dasharray:none;stroke-opacity:1"
       d="m 47.873046,24.889044 -0.0118,2.480461 v 0 l 0.129926,-1.370156 z"
       id="path4647"
       inkscape:connector-curvature="0" />
    <path
       style="fill:#ffffff;fill-opacity:1;stroke:none;stroke-width:0.26458332px;stroke-linecap:butt;stroke-linejoin:miter;stroke-opacity:1"
       d="m 66.193079,23.955916 1.299295,2.882068 0.732327,3.49628 -0.354351,-3.590774 z"
       id="path4649"
       inkscape:connector-curvature="0" />
    <path
       style="fill:#ffffff;fill-opacity:1;stroke:none;stroke-width:0.26458332px;stroke-linecap:butt;stroke-linejoin:miter;stroke-opacity:1"
       d="m 56.026375,53.896005 -3.908817,5.345393 2.171565,-3.407688 z"
       id="path4651"
       inkscape:connector-curvature="0" />
    <path
       style="fill:#ffffff;fill-opacity:1;stroke:none;stroke-width:0.26458332px;stroke-linecap:butt;stroke-linejoin:miter;stroke-opacity:1"
       d="m 45.947729,53.426246 -1.287481,3.224609 -1.81901,3.260045 1.582777,-3.354538 z"
       id="path4655"
       inkscape:connector-curvature="0" />
    <path
       style="fill:#ffffff;fill-opacity:1;stroke:none;stroke-width:0.26458332px;stroke-linecap:butt;stroke-linejoin:miter;stroke-opacity:1"
       d="m 48.943733,35.604749 0.283972,3.390982 -0.468776,3.173909 0.752751,-3.37436 z"
       id="path4657"
       inkscape:connector-curvature="0" />
    <path
       style="fill:#ffffff;fill-opacity:1;stroke:none;stroke-width:0.26458332px;stroke-linecap:butt;stroke-linejoin:miter;stroke-opacity:1"
       d="m 67.53962,35.744049 -1.204798,3.519903 -1.913507,3.354538 2.14974,-3.307291 0.992187,-3.449035 -0.02363,-0.212611 z"
       id="path4659"
       inkscape:connector-curvature="0" />
  </g>
  <g
     inkscape:groupmode="layer"
     id="layer5"
     inkscape:label="Tail Light"
     transform="translate(-6.7948188,-12.603084)"
     sodipodi:insensitive="true">
    <path
       style="fill:#a7aaa9;fill-opacity:1;stroke:#000000;stroke-width:0.26458332px;stroke-linecap:butt;stroke-linejoin:miter;stroke-opacity:1"
       d="m 62.271576,55.918528 0.188989,1.181174 0.850445,0.377976 0.283482,-0.661459 -0.330729,-1.27567 -1.133927,0.472472 z"
       id="path4670"
       inkscape:connector-curvature="0" />
    <path
       style="fill:#a7aaa9;fill-opacity:1;stroke:#000000;stroke-width:0.26458332px;stroke-linecap:butt;stroke-linejoin:miter;stroke-opacity:1"
       d="m 60.098214,52.800223 0.566963,0.708705 0.850447,-0.472469 -0.09449,-0.944944 z"
       id="path4672"
       inkscape:connector-curvature="0" />
    <path
       style="fill:#a7aaa9;fill-opacity:1;stroke:#000000;stroke-width:0.26458332px;stroke-linecap:butt;stroke-linejoin:miter;stroke-opacity:1"
       d="m 58.775298,55.682292 -0.566965,1.181174 1.08668,0.141743 z"
       id="path4674"
       inkscape:connector-curvature="0" />
    <path
       style="fill:#a7aaa9;fill-opacity:1;stroke:#000000;stroke-width:0.26458332px;stroke-linecap:butt;stroke-linejoin:miter;stroke-opacity:1"
       d="m 60.570683,54.642858 -0.661458,1.086681 0.803201,0.425222 0.661458,-1.653646 z"
       id="path4676"
       inkscape:connector-curvature="0" />
    <path
       style="fill:#a7aaa9;fill-opacity:1;stroke:#000000;stroke-width:0.26458332px;stroke-linecap:butt;stroke-linejoin:miter;stroke-opacity:1"
       d="m 55.656993,56.154761 1.606399,0.661458 -0.09449,1.322917 -0.897704,0.944944 -0.944931,-1.417413 z"
       id="path4678"
       inkscape:connector-curvature="0" />
    <path
       style="fill:#a7aaa9;fill-opacity:1;stroke:#000000;stroke-width:0.26458332px;stroke-linecap:butt;stroke-linejoin:miter;stroke-opacity:1"
       d="m 41.530135,56.202008 -1.27567,1.606399 1.370163,-0.283483 z"
       id="path4680"
       inkscape:connector-curvature="0" />
    <path
       style="fill:#a7aaa9;fill-opacity:1;stroke:#000000;stroke-width:0.26458332px;stroke-linecap:butt;stroke-linejoin:miter;stroke-opacity:1"
       d="m 43.797989,55.20982 c -0.188986,0.141743 -1.275667,1.228424 -1.275667,1.228424 l 0.755952,0.566965 0.614211,-1.13393 z"
       id="path4682"
       inkscape:connector-curvature="0" />
    <path
       style="fill:#a7aaa9;fill-opacity:1;stroke:#000000;stroke-width:0.26458332px;stroke-linecap:butt;stroke-linejoin:miter;stroke-opacity:1"
       d="m 42.758555,53.603424 -0.04725,1.133927 1.700892,-0.661458 z"
       id="path4684"
       inkscape:connector-curvature="0" />
    <path
       style="fill:#a7aaa9;fill-opacity:1;stroke:#000000;stroke-width:0.26458332px;stroke-linecap:butt;stroke-linejoin:miter;stroke-opacity:1"
       d="m 40.396204,54.548362 -0.236235,1.606399 -0.708705,-1.41741 0.566965,-0.330729 z"
       id="path4686"
       inkscape:connector-curvature="0" />
    <path
       style="fill:#ffffff;fill-opacity:1;stroke:#000000;stroke-width:0.26458332px;stroke-linecap:butt;stroke-linejoin:miter;stroke-opacity:1"
       d="M 39.262277,53.272695 38.553572,54.406622 37.892114,54.028646 38.0811,53.414435 Z"
       id="path4688"
       inkscape:connector-curvature="0" />
    <path
       style="fill:#ffffff;fill-opacity:1;stroke:#000000;stroke-width:0.26458332px;stroke-linecap:butt;stroke-linejoin:miter;stroke-opacity:1"
       d="m 37.93936,55.682292 0.803199,-0.04725 -0.283483,1.41741 z"
       id="path4690"
       inkscape:connector-curvature="0" />
    <path
       style="fill:#ffffff;fill-opacity:1;stroke:#000000;stroke-width:0.26458332px;stroke-linecap:butt;stroke-linejoin:miter;stroke-opacity:1"
       d="m 35.57701,56.060268 0.330729,0.330729 -0.59059,0.87407 -0.519716,-0.590587 z"
       id="path4692"
       inkscape:connector-curvature="0" />
    <path
       style="fill:#ffffff;fill-opacity:1;stroke:#000000;stroke-width:0.26458332px;stroke-linecap:butt;stroke-linejoin:miter;stroke-opacity:1"
       d="m 32.529576,53.556174 1.346539,-0.141739 0.283482,0.755951 -0.897692,0.425225 -0.425225,0.708705 -0.354351,-0.472472 z"
       id="path4694"
       inkscape:connector-curvature="0" />
    <path
       style="fill:#ffffff;fill-opacity:1;stroke:#000000;stroke-width:0.26458332px;stroke-linecap:butt;stroke-linejoin:miter;stroke-opacity:1"
       d="m 32.671316,50.367001 0.377976,1.511906 0.755954,0.4016 -0.118118,0.472469 1.393788,-1.41741 -0.968566,0.02363 -0.448847,-0.87407 z"
       id="path4696"
       inkscape:connector-curvature="0" />
    <path
       style="fill:#ffffff;fill-opacity:1;stroke:#000000;stroke-width:0.26458332px;stroke-linecap:butt;stroke-linejoin:miter;stroke-opacity:1"
       d="m 32.411458,48.382626 0.09449,1.27567 1.464659,-0.755952 0.496094,0.401601 c 0,0 1.157552,-0.779577 0.803198,-0.779577 -0.354351,0 -1.748139,-0.566965 -1.748139,-0.566965 l -1.299294,0.472469 z"
       id="path4698"
       inkscape:connector-curvature="0" />
    <path
       style="fill:#ffffff;fill-opacity:1;stroke:#000000;stroke-width:0.26458332px;stroke-linecap:butt;stroke-linejoin:miter;stroke-opacity:1"
       d="m 36.380208,49.256695 c 0,0 0.377976,0.566965 0.283482,0.566965 -0.09449,0 -1.653645,0.496094 -1.653645,0.496094 l 0.755951,-1.204799 z"
       id="path4700"
       inkscape:connector-curvature="0" />
    <path
       style="fill:#ffffff;fill-opacity:1;stroke:#000000;stroke-width:0.26458332px;stroke-linecap:butt;stroke-linejoin:miter;stroke-opacity:1"
       d="m 34.915551,43.776042 -1.13393,0.519716 0.897694,2.267857 1.700893,-0.496093 -0.354354,-1.464657 z"
       id="path4702"
       inkscape:connector-curvature="0" />
    <path
       style="fill:#ffffff;fill-opacity:1;stroke:#000000;stroke-width:0.26458332px;stroke-linecap:butt;stroke-linejoin:miter;stroke-opacity:1"
       d="m 81.016074,28.271541 0.80181,0.567947 -1.069078,1.269531 -0.601356,-0.935445 z"
       id="path4704"
       inkscape:connector-curvature="0" />
    <path
       style="fill:#ffffff;fill-opacity:1;stroke:#000000;stroke-width:0.26458332px;stroke-linecap:butt;stroke-linejoin:miter;stroke-opacity:1"
       d="m 83.221048,28.605628 c 0,0 -1.202713,1.269529 -0.868627,1.302938 0.334087,0.03341 2.037932,-0.03341 2.037932,-0.03341 l -0.100227,-1.069078 z"
       id="path4706"
       inkscape:connector-curvature="0" />
    <path
       style="fill:#ffffff;fill-opacity:1;stroke:#000000;stroke-width:0.26458332px;stroke-linecap:butt;stroke-linejoin:miter;stroke-opacity:1"
       d="m 78.844509,26.901785 -0.835218,1.169302 0.968854,0.835219 z"
       id="path4708"
       inkscape:connector-curvature="0" />
    <path
       style="fill:#a7aaa9;fill-opacity:1;stroke:#000000;stroke-width:0.26458332px;stroke-linecap:butt;stroke-linejoin:miter;stroke-opacity:1"
       d="m 76.03818,28.30495 -0.267269,1.302938 1.503392,-0.367496 z"
       id="path4710"
       inkscape:connector-curvature="0" />
    <path
       style="fill:#fffff3;fill-opacity:1;stroke:#000000;stroke-width:0.26458332px;stroke-linecap:butt;stroke-linejoin:miter;stroke-opacity:1"
       d="m 25.223561,26.166793 -1.035669,1.302939 1.503391,0.400904 1.145028,-1.906718 -1.579341,0.33651 z"
       id="path4712"
       inkscape:connector-curvature="0" />
    <path
       style="fill:#fffff3;fill-opacity:1;stroke:#000000;stroke-width:0.26458332px;stroke-linecap:butt;stroke-linejoin:miter;stroke-opacity:1"
       d="m 25.958553,28.672446 0.03341,1.035669 1.600305,-0.01169 -0.330774,-1.057394 z"
       id="path4714"
       inkscape:connector-curvature="0" />
    <path
       style="fill:#fffff3;fill-opacity:1;stroke:#000000;stroke-width:0.26458332px;stroke-linecap:butt;stroke-linejoin:miter;stroke-opacity:1"
       d="m 16.300227,22.798367 -1.901081,0.862775 2.906556,2.438834 0.175701,-1.69521 z"
       id="path4716"
       inkscape:connector-curvature="0" />
    <path
       style="fill:#fffff3;fill-opacity:1;stroke:#000000;stroke-width:0.26458332px;stroke-linecap:butt;stroke-linejoin:miter;stroke-opacity:1"
       d="m 9.8273877,19.349331 -0.5197171,1.322916 2.8196844,0.316199 -0.410086,-1.828103 z"
       id="path4718"
       inkscape:connector-curvature="0" />
    <path
       style="fill:#fffff3;fill-opacity:1;stroke:#000000;stroke-width:0.26458332px;stroke-linecap:butt;stroke-linejoin:miter;stroke-opacity:1"
       d="m 23.954248,16.042039 -0.377976,2.22061 1.212976,0.01969 z"
       id="path4720"
       inkscape:connector-curvature="0" />
    <path
       style="fill:#a7aaa9;fill-opacity:1;stroke:#000000;stroke-width:0.26458332px;stroke-linecap:butt;stroke-linejoin:miter;stroke-opacity:1"
       d="m 39.221804,16.444864 -0.56795,1.570209 -0.400904,1.369756 2.473986,-1.169423 z"
       id="path4722"
       inkscape:connector-curvature="0" />
    <path
       style="fill:#a7aaa9;fill-opacity:1;stroke:#000000;stroke-width:0.26458332px;stroke-linecap:butt;stroke-linejoin:miter;stroke-opacity:1"
       d="m 47.199777,16.325521 c 0,0 -0.803201,2.031622 -0.803201,2.031622 l 1.889882,-2.409598 z"
       id="path4724"
       inkscape:connector-curvature="0" />
    <path
       style="fill:#a7aaa9;fill-opacity:1;stroke:#000000;stroke-width:0.26458332px;stroke-linecap:butt;stroke-linejoin:miter;stroke-opacity:1"
       d="m 54.355938,14.50716 -3.092918,1.345891 2.740327,-1.937128 z"
       id="path4726"
       inkscape:connector-curvature="0" />
    <path
       style="fill:#a7aaa9;fill-opacity:1;stroke:#000000;stroke-width:0.26458332px;stroke-linecap:butt;stroke-linejoin:miter;stroke-opacity:1"
       d="m 60.47619,14.671875 -2.311659,1.205042 -0.71215,-1.157794 z"
       id="path4728"
       inkscape:connector-curvature="0" />
    <path
       style="fill:#a7aaa9;fill-opacity:1;stroke:#000000;stroke-width:0.26458332px;stroke-linecap:butt;stroke-linejoin:miter;stroke-opacity:1"
       d="m 65.881937,14.607386 -0.01958,3.135546 -1.650847,-2.367146 z"
       id="path4730"
       inkscape:connector-curvature="0" />
    <path
       style="fill:#ffffef;fill-opacity:1;stroke:#000000;stroke-width:0.26458332px;stroke-linecap:butt;stroke-linejoin:miter;stroke-opacity:1"
       d="m 76.256691,14.860867 -0.566965,1.88988 1.889887,0.236233 z"
       id="path4732"
       inkscape:connector-curvature="0" />
    <path
       style="fill:#a7aaa9;fill-opacity:1;stroke:#000000;stroke-width:0.26458332px;stroke-linecap:butt;stroke-linejoin:miter;stroke-opacity:1"
       d="m 81.241256,15.900298 0.07087,1.866258 -0.614217,-0.543338 z"
       id="path4734"
       inkscape:connector-curvature="0" />
    <path
       style="fill:#a7aaa9;fill-opacity:1;stroke:#000000;stroke-width:0.26458332px;stroke-linecap:butt;stroke-linejoin:miter;stroke-opacity:1"
       d="m 87.572357,17.93192 0.307107,1.74814 -1.039434,-1.984375 z"
       id="path4736"
       inkscape:connector-curvature="0" />
    <path
       style="fill:#ffffef;fill-opacity:1;stroke:#000000;stroke-width:0.26458332px;stroke-linecap:butt;stroke-linejoin:miter;stroke-opacity:1"
       d="m 73.374622,13.585197 -0.472464,1.77176 -1.984377,-0.47247 0.283477,-1.2048 z"
       id="path4738"
       inkscape:connector-curvature="0" />
  </g>
  <g
     inkscape:groupmode="layer"
     id="layer2"
     inkscape:label="Text"
     transform="translate(-6.7948188,-12.603084)"
     sodipodi:insensitive="true" />
  <g
     id="g955"
     transform="rotate(-3.9114308,119.99663,36.36082)">
    <g
       transform="translate(-10.148368,-13.248828)"
       id="text923"
       style="font-style:normal;font-weight:normal;font-size:10.58333302px;line-height:1.25;font-family:sans-serif;letter-spacing:0px;word-spacing:0px;fill:#000000;fill-opacity:1;stroke:none;stroke-width:0.26458332"
       aria-label="Cobra">
      <path
         inkscape:connector-curvature="0"
         id="path928"
         style="font-style:normal;font-variant:normal;font-weight:normal;font-stretch:normal;font-size:40.21667099px;font-family:'Kaushan Script';-inkscape-font-specification:'Kaushan Script';stroke-width:0.26458332"
         d="m 103.60934,81.410639 q 0,-2.815167 0.64347,-5.509684 0.68368,-2.734734 1.89018,-5.147734 1.2065,-2.453217 2.85539,-4.464051 1.6891,-2.05105 3.65971,-3.539067 2.01084,-1.488017 4.26297,-2.29235 2.25213,-0.84455 4.62492,-0.84455 2.77495,0 4.30318,1.166283 1.56845,1.166284 1.56845,3.257551 0,0.804333 -0.2413,1.648883 -0.20108,0.84455 -0.64347,1.6891 -0.40216,0.804334 -0.9652,1.568451 -0.56303,0.764116 -1.24671,1.32715 -1.04564,-0.160867 -1.80975,-0.924984 -0.76412,-0.804333 -0.9652,-1.849967 1.40758,-1.166283 2.21191,-2.413 0.84455,-1.286933 0.84455,-2.332567 0,-1.769533 -2.21191,-1.769533 -0.92499,0 -1.9304,0.402166 -0.9652,0.36195 -1.97062,1.045634 -1.00542,0.683683 -1.97062,1.648883 -0.92498,0.9652 -1.72931,2.131484 -5.59012,8.043334 -5.59012,16.448618 0,2.976034 0.92498,4.785784 0.92499,1.80975 2.45322,2.131484 1.72932,-0.402167 4.38362,-2.211917 2.6543,-1.80975 5.7912,-4.705351 0.40216,0.402167 0.4826,0.84455 -1.16629,1.528234 -2.413,2.935817 -1.24672,1.407584 -2.49344,2.573867 -1.2065,1.166284 -2.413,2.051051 -1.16628,0.884766 -2.1717,1.367366 -4.98686,-0.08043 -7.56073,-2.855383 -2.57387,-2.774951 -2.57387,-8.163984 z" />
      <path
         sodipodi:nodetypes="ccsscsccccssccccccsssccscccccssccc"
         inkscape:connector-curvature="0"
         id="path930"
         style="font-style:normal;font-variant:normal;font-weight:normal;font-stretch:normal;font-size:40.21667099px;font-family:'Kaushan Script';-inkscape-font-specification:'Kaushan Script';stroke-width:0.26458332"
         d="m 130.5809,90.70069 c -1.52823,-0.160867 -2.74814,-0.831145 -3.65971,-2.010834 -0.91158,-1.179689 -1.36737,-2.681112 -1.36737,-4.504267 0,-1.072445 0.16087,-2.185106 0.4826,-3.337984 0.32173,-1.152878 0.77752,-2.265539 1.36737,-3.337984 0.58984,-1.099255 1.28693,-2.131483 2.09126,-3.096683 0.80433,-0.9652 1.6757,-1.796345 2.61409,-2.493434 1.47461,-1.099255 2.85539,-1.648883 4.14232,-1.648883 0.85795,0.455789 1.7025,1.407583 2.53365,2.855383 h 0.36195 c 0.10724,-0.02681 0.22789,-0.04022 0.36195,-0.04022 1.42099,0 2.13148,1.260122 2.13148,3.780367 0,1.6891 -0.28152,3.297767 -0.84455,4.826 -0.53622,1.501423 -1.30034,2.86879 -2.29235,4.102101 -0.9652,1.233311 -2.13148,2.278945 -3.49885,3.1369 -1.34056,0.831145 -2.81517,1.420989 -4.42384,1.769534 z m 2.05105,-12.668252 c -0.45579,0.616656 -0.88476,1.286934 -1.28693,2.010834 -0.0912,0.16411 -0.93388,-0.445678 -1.01954,-0.280192 -0.16654,0.321749 -0.74193,1.249131 -0.72262,1.655296 0.0146,0.306428 0.7946,0.587177 0.69653,0.836813 -0.29493,0.7239 -0.52282,1.434394 -0.68369,2.131483 -0.16087,0.670278 -0.2413,1.273528 -0.2413,1.80975 0,0.643467 0.10725,1.260123 0.32174,1.849967 0.21449,0.589845 0.45579,0.924984 0.7239,1.005417 1.2065,-0.268111 2.30576,-0.764117 3.29777,-1.488017 1.01882,-0.750711 1.89018,-1.675695 2.61408,-2.77495 0.75071,-1.099256 1.32715,-2.345973 1.72932,-3.74015 0.42897,-1.394178 0.64346,-2.882195 0.64346,-4.464051 0,-0.697089 -0.0402,-1.246716 -0.12065,-1.648883 -0.0804,-0.402167 -0.21449,-0.750712 -0.40216,-1.045634 -1.17969,0.348545 -2.23873,0.911578 -3.17712,1.6891 -0.91158,0.777523 -1.70251,1.595262 -2.37279,2.453217 z" />
      <path
         inkscape:connector-curvature="0"
         id="path932"
         style="font-style:normal;font-variant:normal;font-weight:normal;font-stretch:normal;font-size:40.21667099px;font-family:'Kaushan Script';-inkscape-font-specification:'Kaushan Script';stroke-width:0.26458332"
         d="m 147.28716,89.574623 q 1.84997,-1.246717 3.6195,-3.177117 1.76954,-1.970617 3.21734,-4.222751 1.4478,-2.29235 2.45321,-4.745567 1.00542,-2.453217 1.36737,-4.70535 0,-0.4826 -0.52282,-0.643467 -0.56303,0 -1.56845,1.005417 -0.9652,0.9652 -2.1717,2.493433 -1.16628,1.528234 -2.413,3.418417 -1.2065,1.890184 -2.21192,3.780367 -1.00541,1.849967 -1.72931,3.498851 -0.68369,1.608667 -0.76412,2.614083 -0.40217,0 -0.68368,-0.804333 -0.0804,-0.201083 -0.28152,-0.402167 -0.20108,-0.2413 -0.64347,-0.563033 -0.20108,-0.160867 -0.40216,-0.36195 -0.20109,-0.2413 -0.28152,-0.402167 -0.16087,-0.321733 -0.16087,-1.045633 0,-2.372784 0.60325,-5.348818 0.60325,-2.976033 1.56845,-6.072717 1.00542,-3.096684 2.33257,-6.072717 1.32715,-3.016251 2.73474,-5.509684 1.4478,-2.493434 2.8956,-4.222751 1.4478,-1.729316 2.73473,-2.29235 0.40217,0.12065 0.9652,0.402167 0.56303,0.281517 1.12607,0.643467 0.56303,0.36195 1.04563,0.7239 0.52282,0.36195 0.76412,0.643466 -4.42384,3.579284 -7.68139,9.209618 -3.21733,5.590117 -5.26838,13.231285 1.12606,-2.091267 2.53365,-4.021667 1.40758,-1.970617 2.77495,-3.458634 1.40758,-1.488017 2.6543,-2.372784 1.28693,-0.884766 2.13148,-0.884766 0.64347,0.160866 1.24672,0.563033 0.60325,0.402167 1.08585,1.005417 0.4826,0.563033 0.80433,1.246717 0.32174,0.643466 0.40217,1.367366 -0.0402,1.689101 -0.60325,3.619501 -0.52282,1.890183 -1.4478,3.74015 -0.88477,1.849967 -2.05105,3.539067 -1.12607,1.6891 -2.413,2.976034 -1.24672,1.246717 -2.53365,2.010833 -1.24672,0.764117 -2.37278,0.764117 -0.4826,0 -1.00542,-0.12065 -0.4826,-0.08043 -0.92499,-0.281516 -0.40216,-0.160867 -0.68368,-0.361951 -0.2413,-0.201083 -0.2413,-0.402166 z" />
      <path
         sodipodi:nodetypes="cccscccccccccccsccscccsscscccccccccc"
         inkscape:connector-curvature="0"
         id="path934"
         style="font-style:normal;font-variant:normal;font-weight:normal;font-stretch:normal;font-size:40.21667099px;font-family:'Kaushan Script';-inkscape-font-specification:'Kaushan Script';stroke-width:0.26458332"
         d="m 161.63069,88.488773 c 0.13405,-0.777523 0.36195,-1.796345 0.68368,-3.056467 0.34855,-1.286934 0.75071,-2.640895 1.2065,-4.061884 0.45579,-1.4478 0.93839,-2.8956 1.4478,-4.343401 0.50941,-1.4478 1.00542,-2.748139 1.48802,-3.901017 0.34854,-0.831144 0.65687,-1.474611 0.92498,-1.9304 0.26811,-0.4826 0.56304,-0.884767 0.88477,-1.2065 0.37535,0.05362 0.76411,0.147459 1.16628,0.281517 0.40217,0.134055 0.79093,0.294922 1.16628,0.4826 0.37536,0.187677 0.7105,0.388761 1.00542,0.60325 0.29492,0.187678 0.52281,0.375356 0.68368,0.563033 -0.7239,0.857956 -1.36737,1.836562 -1.9304,2.935817 -0.53622,1.099256 -1.08585,2.50684 -1.64888,4.222751 1.4478,-1.286934 2.72133,-2.520245 3.82058,-3.699934 1.12607,-1.179689 2.1717,-2.493434 3.13691,-3.941234 0.16087,-0.134055 0.44238,-0.201083 0.84455,-0.201083 0.37535,0 0.7373,0.06703 1.08585,0.201083 0.34854,0.107245 0.58984,0.268111 0.7239,0.4826 -0.4826,1.286933 -0.7239,2.560461 -0.7239,3.820584 0,1.179689 0.17427,2.064455 0.52281,2.6543 -0.0268,0.160867 -0.21448,0.469195 -0.56303,0.924984 -0.32173,0.455789 -0.68368,0.884766 -1.08585,1.286933 -0.44261,-0.229502 -0.78321,-0.357232 -1.06769,-0.784958 -0.14327,-0.215411 0.88233,-0.752845 0.70496,-0.944327 -0.0464,-0.05012 -1.05372,-1.18864 -1.09911,-1.240533 -0.13968,-0.166284 -0.89085,0.66138 -1.01238,0.488499 -0.36834,-0.523999 -0.5013,-0.633978 -0.7029,-1.218611 -1.26012,0.884767 -2.33256,1.756129 -3.21733,2.614084 -0.88477,0.831145 -1.64888,1.769534 -2.29235,2.815167 -0.61666,1.018822 -1.15288,2.198511 -1.60867,3.539067 -0.42898,1.340556 -0.84455,2.935817 -1.24672,4.785784 -0.2413,-0.02681 -0.53622,-0.120652 -0.88476,-0.281517 -0.32173,-0.134055 -0.65687,-0.308328 -1.00542,-0.522817 -0.32173,-0.214489 -0.61666,-0.442383 -0.88477,-0.683683 -0.26811,-0.2413 -0.44238,-0.469194 -0.52281,-0.683683 z" />
      <path
         sodipodi:nodetypes="scccccscscccssccscccsscsscccccccccscccccccs"
         inkscape:connector-curvature="0"
         id="path936"
         style="font-style:normal;font-variant:normal;font-weight:normal;font-stretch:normal;font-size:40.21667099px;font-family:'Kaushan Script';-inkscape-font-specification:'Kaushan Script';stroke-width:0.26458332"
         d="m 192.65156,73.045571 c 0.26811,0 0.57644,0.05362 0.92499,0.160867 0.37535,0.08043 0.71049,0.201083 1.00541,0.36195 0.29493,0.134055 0.53623,0.281516 0.7239,0.442383 0.21449,0.160867 0.32174,0.308328 0.32174,0.442383 -0.53623,1.126067 -1.03223,2.26554 -1.48802,3.418418 -0.45579,1.126067 -0.84455,2.211917 -1.16628,3.25755 -0.32173,1.045633 -0.57644,2.024239 -0.76412,2.935817 -0.16087,0.911578 -0.2413,1.702506 -0.2413,2.372783 0,0.750711 0.0804,1.380773 0.2413,1.890184 0.16087,0.4826 0.42898,0.831144 0.80433,1.045633 -0.32173,0.214489 -0.7373,0.388762 -1.24671,0.522817 -0.50941,0.134055 -0.9652,0.201083 -1.36737,0.201083 -1.4478,0 -2.1717,-0.992011 -2.1717,-2.976033 0,-1.528233 0.50941,-3.6195 1.52823,-6.273801 -0.53622,1.233311 -1.15288,2.399595 -1.84997,3.498851 -0.69709,1.072444 -1.40758,2.024238 -2.13148,2.855383 -0.7239,0.831145 -1.46121,1.514828 -2.21192,2.05105 -0.7239,0.509411 -1.39418,0.817739 -2.01083,0.924984 -0.99201,-0.05362 -1.79635,-0.522815 -2.413,-1.407584 -0.61665,-0.911577 -0.92498,-2.064455 -0.92498,-3.458633 0,-1.501423 0.32173,-3.083279 0.9652,-4.745568 0.64347,-1.662289 1.50797,-3.367631 2.49998,-4.78862 0.24526,-0.342066 0.40261,0.51405 0.94503,0.372656 0.34769,-0.09063 1.07842,-0.994816 1.24543,-1.184661 0.6548,-0.74433 -0.87317,-1.014819 -0.15952,-1.58252 1.17969,-0.9652 3.53919,-2.45545 4.63845,-2.509072 0.26811,0.08043 0.56303,0.2413 0.88477,0.4826 0.34854,0.2413 0.67027,0.522817 0.9652,0.84455 0.32173,0.321733 0.58984,0.656872 0.80433,1.005417 0.21449,0.321733 0.33514,0.60325 0.36195,0.84455 -1.07245,0.160867 -2.18511,0.683683 -3.33799,1.56845 -1.12607,0.884767 -2.15829,1.957211 -3.09668,3.217334 -0.91158,1.233311 -1.66229,2.560461 -2.25213,3.98145 -0.58985,1.420989 -0.88477,2.748139 -0.88477,3.98145 0,0.509411 0.18768,0.831145 0.56303,0.965201 0.77753,-0.160867 1.6757,-0.817739 2.69452,-1.970617 1.01882,-1.179689 2.25213,-2.98944 3.69993,-5.429251 0.26811,-0.4826 0.56304,-1.018822 0.88477,-1.608667 0.34855,-0.589844 0.69709,-1.2065 1.04564,-1.849967 0.34854,-0.643467 0.68368,-1.286933 1.00541,-1.9304 0.34855,-0.670278 0.67028,-1.313745 0.9652,-1.9304 z" />
    </g>
    <rect
       ry="0.37542245"
       transform="rotate(24.710505,25.370757,-21.811592)"
       y="6.0929079"
       x="95.248756"
       height="2.1946714"
       width="2.2217689"
       id="rect939"
       style="fill:#000000;fill-opacity:1;stroke:none;stroke-width:0;stroke-linejoin:bevel;stroke-miterlimit:4;stroke-dasharray:none;stroke-opacity:1" />
    <rect
       ry="0.37542248"
       transform="rotate(24.710505,25.370757,-21.811592)"
       y="-17.052797"
       x="150.82768"
       height="2.1946714"
       width="2.2217689"
       id="rect939-3"
       style="fill:#3c3c3c;fill-opacity:1;stroke:none;stroke-width:0;stroke-linejoin:bevel;stroke-miterlimit:4;stroke-dasharray:none;stroke-opacity:1" />
    <g
       transform="translate(-3.3535493,-0.64574363)"
       id="text919"
       style="font-style:normal;font-variant:normal;font-weight:normal;font-stretch:normal;font-size:10.58333302px;line-height:1.25;font-family:'Kaushan Script';-inkscape-font-specification:'Kaushan Script';letter-spacing:0px;word-spacing:0px;fill:#000000;fill-opacity:1;stroke:none;stroke-width:0.26458332"
       aria-label="nappy">
      <path
         sodipodi:nodetypes="cccsccccccccccsccccccsscsscccsscscccsscccsccccccccsscsccc"
         inkscape:connector-curvature="0"
         id="path916"
         style="font-style:normal;font-variant:normal;font-weight:normal;font-stretch:normal;font-size:50.79999924px;font-family:'Kaushan Script';-inkscape-font-specification:'Kaushan Script';stroke-width:0.26458332"
         d="m 91.354099,16.254022 c 0.880533,0.270933 1.710267,0.880533 2.4892,1.8288 0.778933,0.9144 1.354667,1.9304 1.7272,3.047999 -0.372533,0.9144 -0.948267,2.015067 -1.7272,3.302 -0.778933,1.286933 -1.557867,2.607733 -2.3368,3.9624 -0.778933,1.3208 -1.490133,2.5908 -2.1336,3.81 -0.6096,1.185333 -0.9652,2.167467 -1.0668,2.9464 0.541867,-0.575733 1.134533,-1.236133 1.778,-1.9812 0.677333,-0.778933 1.3208,-1.540933 1.9304,-2.286 0.643467,-0.778933 1.236133,-1.4732 1.778,-2.0828 0.541867,-0.643467 0.9652,-1.1176 1.27,-1.4224 0.643467,-0.677333 1.405467,-1.456267 2.286,-2.3368 0.880533,-0.9144 1.794934,-1.761067 2.743201,-2.54 0.98213,-0.8128 1.96427,-1.490133 2.9464,-2.032 0.98213,-0.575733 1.8796,-0.8636 2.6924,-0.8636 0.88053,0 1.60867,0.3048 2.1844,0.9144 0.6096,0.575733 1.08373,1.185333 1.4224,1.8288 0,0.06773 -0.13547,0.169333 -0.4064,0.3048 -0.23707,0.1016 -0.59267,0.423333 -1.0668,0.9652 -0.47413,0.6096 -1.016,1.456267 -1.6256,2.54 -0.57573,1.049867 -1.15147,2.201333 -1.7272,3.4544 -0.54187,1.2192 -0.99907,2.472267 -1.3716,3.7592 -0.37253,1.286933 -0.5588,2.455333 -0.5588,3.5052 0,0.846667 0.1016,1.388533 0.3048,1.6256 0.23707,0.237067 0.5588,0.3556 0.9652,0.3556 0.37253,0 0.762,-0.08467 1.1684,-0.254 0.4064,-0.169333 0.72813,-0.254 0.9652,-0.254 0.13547,0.06773 0.23707,0.220133 0.3048,0.4572 0.1016,0.2032 0.1524,0.389467 0.1524,0.5588 -0.27093,0.237067 -0.59267,0.474133 -0.9652,0.7112 -0.37253,0.237067 -0.762,0.4572 -1.1684,0.6604 -0.4064,0.2032 -0.8128,0.372533 -1.2192,0.508 -0.37253,0.135467 -0.7112,0.2032 -1.016,0.2032 -0.98213,0 -1.79493,-0.1524 -2.438401,-0.4572 -0.6096,-0.270933 -1.100667,-0.643467 -1.4732,-1.1176 -0.338667,-0.474133 -0.575733,-1.032933 -0.7112,-1.6764 -0.135467,-0.677333 -0.2032,-1.388533 -0.2032,-2.1336 0,-0.4064 0.03387,-0.8636 0.1016,-1.3716 0.06773,-0.508 0.2032,-1.100667 0.4064,-1.778 0.2032,-0.7112 0.491067,-1.540933 0.8636,-2.4892 0.372533,-0.982133 0.846667,-2.150533 1.422401,-3.5052 -0.06773,0 -0.524934,0.237067 -1.371601,0.7112 -0.846667,0.474133 -1.761067,1.202267 -2.7432,2.1844 -1.591733,1.524 -3.031067,3.031067 -4.318,4.5212 -1.253067,1.490133 -2.54,3.1496 -3.8608,4.9784 -0.745067,1.049867 -1.405467,1.9304 -1.9812,2.6416 -0.541867,0.745067 -1.016,1.236133 -1.4224,1.4732 -0.7112,-0.4064 -1.236133,-0.982133 -1.5748,-1.7272 -0.338667,-0.7112 -0.592667,-1.456267 -0.762,-2.2352 0,-0.643467 0.08467,-1.456267 0.254,-2.4384 0.105541,-0.510113 1.260455,-0.279234 1.393404,-0.844164 0.05943,-0.252549 0.422213,-0.722187 0.245294,-1.066301 -0.189281,-0.368159 -0.952415,-1.046279 -0.876698,-1.340735 0.338667,-1.2192 0.745067,-2.4892 1.2192,-3.81 0.474133,-1.3208 0.999067,-2.6416 1.5748,-3.9624 1.286933,-2.980267 2.455333,-5.317066 3.5052,-7.010399 1.083733,-1.693333 1.761067,-2.607733 2.032,-2.7432 z" />
      <path
         inkscape:connector-curvature="0"
         id="path918"
         style="font-style:normal;font-variant:normal;font-weight:normal;font-stretch:normal;font-size:50.79999924px;font-family:'Kaushan Script';-inkscape-font-specification:'Kaushan Script';stroke-width:0.26458332"
         d="m 128.03487,20.368821 q 0.508,0 1.1684,0.2032 0.7112,0.1524 1.27,0.4572 0.5588,0.254 0.9144,0.5588 0.4064,0.3048 0.4064,0.5588 -1.016,2.1336 -1.8796,4.318 -0.8636,2.1336 -1.4732,4.1148 -0.6096,1.9812 -0.9652,3.7084 -0.3048,1.7272 -0.3048,2.9972 0,1.4224 0.3048,2.3876 0.3048,0.9144 1.016,1.3208 -0.6096,0.4064 -1.5748,0.6604 -0.9652,0.254 -1.7272,0.254 -2.7432,0 -2.7432,-3.7592 0,-2.8956 1.9304,-7.9248 -1.016,2.3368 -2.3368,4.4196 -1.3208,2.032 -2.6924,3.6068 -1.3716,1.5748 -2.794,2.5908 -1.3716,0.9652 -2.54,1.1684 -1.8796,-0.1016 -3.048,-1.778 -1.1684,-1.7272 -1.1684,-4.3688 0,-2.8448 1.2192,-5.9944 1.2192,-3.1496 3.0988,-5.842 1.9304,-2.6924 4.1656,-4.4704 2.2352,-1.828799 4.318,-1.930399 0.508,0.1524 1.1176,0.6096 0.6604,0.4572 1.2192,1.0668 0.6096,0.609599 1.016,1.269999 0.4064,0.6096 0.4572,1.0668 -2.032,0.3048 -4.2164,1.9812 -2.1336,1.6764 -3.9116,4.064 -1.7272,2.3368 -2.8448,5.0292 -1.1176,2.6924 -1.1176,5.0292 0,0.9652 0.7112,1.2192 1.4732,-0.3048 3.4036,-2.4892 1.9304,-2.2352 4.6736,-6.858 0.508,-0.9144 1.1176,-2.032 0.6604,-1.1176 1.3208,-2.3368 0.6604,-1.2192 1.27,-2.4384 0.6604,-1.27 1.2192,-2.4384 z" />
      <path
         sodipodi:nodetypes="cccsccccccccscccscccscsccscsccscssccscccccscccssccccccc"
         inkscape:connector-curvature="0"
         id="path920"
         style="font-style:normal;font-variant:normal;font-weight:normal;font-stretch:normal;font-size:50.79999924px;font-family:'Kaushan Script';-inkscape-font-specification:'Kaushan Script';stroke-width:0.26458332"
         d="m 130.71219,57.706821 c -0.47413,-0.135467 -0.74507,-0.643467 -0.8128,-1.524 -0.13547,-0.440267 -0.23707,-0.9652 -0.3048,-1.5748 -0.0339,-0.6096 -0.0508,-1.303867 -0.0508,-2.0828 0,-0.7112 0.11853,-1.693333 0.3556,-2.9464 0.23707,-1.2192 0.5588,-2.607733 0.9652,-4.1656 0.44027,-1.557867 0.9652,-3.234267 1.5748,-5.0292 0.6096,-1.8288 1.28693,-3.674533 2.032,-5.5372 0.9144,-2.3368 1.71027,-4.351867 2.3876,-6.0452 0.67733,-1.7272 1.23613,-3.217333 1.6764,-4.4704 0.47413,-1.253067 0.84667,-2.286 1.1176,-3.0988 0.3048,-0.8128 0.54187,-1.507066 0.7112,-2.082799 0.13547,-0.4064 0.33867,-0.897467 0.6096,-1.4732 0.27093,-0.575733 0.57573,-1.151467 0.9144,-1.7272 0.37253,-0.6096 0.74507,-1.1684 1.1176,-1.6764 0.37253,-0.541867 0.7112,-0.948267 1.016,-1.2192 1.18533,0.169333 2.30293,0.474133 3.3528,0.9144 1.04987,0.440267 1.69333,0.8636 1.9304,1.27 -0.47413,0.440267 -1.016,1.134533 -1.6256,2.0828 -0.6096,0.9144 -1.20227,1.9304 -1.778,3.047999 -0.57573,1.083733 -1.10067,2.201333 -1.5748,3.3528 -0.47413,1.151467 -0.82973,2.167467 -1.0668,3.048 0.33867,-0.575733 0.77893,-1.202267 1.3208,-1.8796 0.54187,-0.677333 1.3716,-1.608667 2.4892,-2.794 1.25307,-1.286933 2.42147,-2.269066 3.5052,-2.946399 1.1176,-0.7112 2.0828,-1.0668 2.8956,-1.0668 1.28693,0 2.3368,0.3556 3.1496,1.0668 0.84667,0.711199 1.27,1.625599 1.27,2.743199 0,2.4384 -0.4064,4.859867 -1.2192,7.2644 -0.8128,2.370667 -1.9812,4.5212 -3.5052,6.4516 -0.57573,0.745067 -1.25307,1.456267 -2.032,2.1336 -0.77893,0.677333 -1.59173,1.286933 -2.4384,1.8288 -0.84667,0.508 -1.6764,0.9144 -2.4892,1.2192 -0.8128,0.3048 -1.54093,0.4572 -2.1844,0.4572 -0.6096,0 -1.15147,-0.118533 -1.6256,-0.3556 -0.44027,-0.270933 -0.74507,-0.592667 -0.9144,-0.9652 1.3208,-0.778933 2.60773,-1.862667 3.8608,-3.2512 1.25307,-1.388533 2.40453,-2.980267 3.4544,-4.7752 1.08373,-1.8288 2.01507,-3.793067 2.794,-5.8928 0.8128,-2.099733 1.4224,-4.233333 1.8288,-6.4008 -1.28693,0.677333 -2.45533,1.4224 -3.5052,2.2352 -1.016,0.778933 -2.032,1.811867 -3.048,3.0988 -1.2192,1.490133 -2.1844,2.6924 -2.8956,3.6068 -0.7112,0.9144 -1.30387,1.693333 -1.778,2.3368 -0.44027,0.643467 -0.8128,1.253067 -1.1176,1.8288 -0.27093,0.541867 -0.70937,1.753739 -1.04803,2.566539 -0.19232,0.439581 -1.43424,-0.331864 -1.65441,0.224727 -0.16499,0.417088 -0.46634,0.691739 -0.34815,1.362364 0.11292,0.640786 1.18121,0.37213 0.99433,0.893431 -0.6096,1.761067 -1.78761,5.045206 -2.46494,7.246539 -0.64347,2.201333 -1.30387,4.538133 -1.9812,7.0104 -0.64347,2.506133 -1.27,4.995333 -1.8796,7.4676 -0.37253,-0.06773 -0.69427,-0.338667 -0.9652,-0.8128 -0.27093,-0.3048 -0.47413,-0.524933 -0.6096,-0.6604 -0.1016,-0.135467 -0.23707,-0.237067 -0.4064,-0.3048 z" />
      <path
         sodipodi:nodetypes="cccsccccccccscccscccscsccscsccscssccssscccccscccccccccc"
         inkscape:connector-curvature="0"
         id="path922"
         style="font-style:normal;font-variant:normal;font-weight:normal;font-stretch:normal;font-size:50.79999924px;font-family:'Kaushan Script';-inkscape-font-specification:'Kaushan Script';stroke-width:0.26458332"
         d="m 156.01298,57.706821 c -0.47413,-0.135467 -0.74507,-0.643467 -0.8128,-1.524 -0.13547,-0.440267 -0.23707,-0.9652 -0.3048,-1.5748 -0.0339,-0.6096 -0.0508,-1.303867 -0.0508,-2.0828 0,-0.7112 0.11853,-1.693333 0.3556,-2.9464 0.23707,-1.2192 0.5588,-2.607733 0.9652,-4.1656 0.44027,-1.557867 0.9652,-3.234267 1.5748,-5.0292 0.6096,-1.8288 1.28693,-3.674533 2.032,-5.5372 0.9144,-2.3368 1.71027,-4.351867 2.3876,-6.0452 0.67733,-1.7272 1.23613,-3.217333 1.6764,-4.4704 0.47413,-1.253067 0.84667,-2.286 1.1176,-3.0988 0.3048,-0.8128 0.54187,-1.507066 0.7112,-2.082799 0.13547,-0.4064 0.33867,-0.897467 0.6096,-1.4732 0.27093,-0.575733 0.57573,-1.151467 0.9144,-1.7272 0.37253,-0.6096 0.74507,-1.1684 1.1176,-1.6764 0.37253,-0.541867 0.7112,-0.948267 1.016,-1.2192 1.18533,0.169333 2.30293,0.474133 3.3528,0.9144 1.04987,0.440267 1.69333,0.8636 1.9304,1.27 -0.47413,0.440267 -1.016,1.134533 -1.6256,2.0828 -0.6096,0.9144 -1.20227,1.9304 -1.778,3.047999 -0.57573,1.083733 -1.10067,2.201333 -1.5748,3.3528 -0.47413,1.151467 -0.82973,2.167467 -1.0668,3.048 0.33867,-0.575733 0.77893,-1.202267 1.3208,-1.8796 0.54187,-0.677333 1.3716,-1.608667 2.4892,-2.794 1.25307,-1.286933 2.42147,-2.269066 3.5052,-2.946399 1.1176,-0.7112 2.0828,-1.0668 2.8956,-1.0668 1.28693,0 2.3368,0.3556 3.1496,1.0668 0.84667,0.711199 1.27,1.625599 1.27,2.743199 0,2.4384 -0.4064,4.859867 -1.2192,7.2644 -0.8128,2.370667 -1.9812,4.5212 -3.5052,6.4516 -0.57573,0.745067 -1.25307,1.456267 -2.032,2.1336 -0.77893,0.677333 -1.59173,1.286933 -2.4384,1.8288 -0.84667,0.508 -1.6764,0.9144 -2.4892,1.2192 -0.8128,0.3048 -1.54093,0.4572 -2.1844,0.4572 -0.6096,0 -1.15147,-0.118533 -1.6256,-0.3556 -0.44027,-0.270933 -0.74507,-0.592667 -0.9144,-0.9652 1.3208,-0.778933 3.71022,-3.366058 4.96329,-4.754591 0.46226,-0.512237 1.34376,0.419688 1.73861,-0.190696 0.53564,-0.828036 0.1181,-0.186183 0.53564,-0.828036 0.27733,-0.42632 -0.78813,-0.765305 -0.5237,-1.217408 1.08374,-1.8288 2.61643,-4.828736 3.39536,-6.928469 0.8128,-2.099733 1.4224,-4.233333 1.8288,-6.4008 -1.28693,0.677333 -2.45533,1.4224 -3.5052,2.2352 -1.016,0.778933 -2.032,1.811867 -3.048,3.0988 -1.2192,1.490133 -2.1844,2.6924 -2.8956,3.6068 -0.7112,0.9144 -1.30387,1.693333 -1.778,2.3368 -0.44027,0.643467 -0.8128,1.253067 -1.1176,1.8288 -0.27093,0.541867 -0.57573,1.2192 -0.9144,2.032 -0.47413,1.083733 -1.03293,2.523067 -1.6764,4.318 -0.6096,1.761067 -1.25307,3.742267 -1.9304,5.9436 -0.64347,2.201333 -1.30387,4.538133 -1.9812,7.0104 -0.64347,2.506133 -1.27,4.995333 -1.8796,7.4676 -0.37253,-0.06773 -0.69427,-0.338667 -0.9652,-0.8128 -0.27093,-0.3048 -0.47413,-0.524933 -0.6096,-0.6604 -0.1016,-0.135467 -0.23707,-0.237067 -0.4064,-0.3048 z" />
      <path
         sodipodi:nodetypes="csccccscccccsccsccccscccccsccccscscccsccscscssccccccscscccsc"
         inkscape:connector-curvature="0"
         id="path924"
         style="font-style:normal;font-variant:normal;font-weight:normal;font-stretch:normal;font-size:50.79999924px;font-family:'Kaushan Script';-inkscape-font-specification:'Kaushan Script';stroke-width:0.26458332"
         d="m 204.12296,33.018021 c -0.77893,2.472267 -1.55787,4.7244 -2.3368,6.7564 -0.77893,2.032 -1.60867,3.894667 -2.4892,5.588 -0.88053,1.7272 -1.8288,3.302 -2.8448,4.7244 -1.016,1.456267 -2.1336,2.827867 -3.3528,4.1148 -1.55787,1.6256 -3.16653,2.861733 -4.826,3.7084 -1.65947,0.880533 -3.31893,1.3208 -4.9784,1.3208 -0.84667,0 -1.69333,-0.1016 -2.54,-0.3048 -0.8128,-0.169333 -1.5748,-0.423333 -2.286,-0.762 -0.74507,-0.3048 -1.38853,-0.677333 -1.9304,-1.1176 -0.57573,-0.4064 -0.98213,-0.846667 -1.2192,-1.3208 0,-0.4064 0.23707,-0.762 0.7112,-1.0668 0.4064,0.372533 0.74507,0.6604 1.016,0.8636 0.27093,0.2032 0.54187,0.372533 0.8128,0.508 0.23707,0.135467 0.508,0.220133 0.8128,0.254 0.27093,0.03387 0.59267,0.0508 0.9652,0.0508 1.9304,0 3.81,-0.575733 5.6388,-1.7272 1.86267,-1.1176 3.6068,-2.726267 5.2324,-4.826 1.65947,-2.065867 3.16653,-4.588933 4.5212,-7.5692 1.35467,-2.9464 2.50613,-6.2484 3.4544,-9.906 -0.44027,0.677333 -0.98213,1.507067 -1.6256,2.4892 -0.64347,0.982133 -1.35467,1.964267 -2.1336,2.9464 -0.77893,0.948267 -1.59173,1.811867 -2.4384,2.5908 -0.8128,0.778933 -1.60867,1.303867 -2.3876,1.5748 -0.54187,-0.03387 -1.1176,-0.1524 -1.7272,-0.3556 -0.57573,-0.169333 -1.13453,-0.423333 -1.6764,-0.762 -0.508,-0.338667 -0.9652,-0.745067 -1.3716,-1.2192 -0.4064,-0.474133 -0.67733,-1.016 -0.8128,-1.6256 0,-0.982133 0.0339,-1.761067 0.1016,-2.3368 0.0677,-0.6096 0.18627,-1.27 0.3556,-1.9812 0.3048,-1.286933 0.74507,-2.7432 1.3208,-4.3688 0.53016,-1.413773 1.12437,-2.80193 1.78261,-4.164472 0.0986,-0.204151 1.10072,-0.04023 1.20222,-0.243232 0.15869,-0.310763 0.11951,-0.750643 0.28336,-1.05237 0.6754,-1.243723 -1.07758,-0.5732 -0.31445,-1.663387 0.98213,-1.388533 3.76879,-4.543605 4.81866,-5.322538 0.27093,0 0.6096,0.03387 1.016,0.1016 0.4064,0.03387 0.82973,0.118533 1.27,0.254 0.44027,0.135467 0.8636,0.3048 1.27,0.508 0.4064,0.169333 0.762,0.4064 1.0668,0.7112 -0.37253,0.338667 -1.18533,1.4732 -2.4384,3.403599 -1.25307,1.9304 -2.6416,4.707467 -4.1656,8.3312 -0.16933,0.372533 -0.37253,0.9144 -0.6096,1.6256 -0.23707,0.7112 -0.47413,1.456267 -0.7112,2.2352 -0.2032,0.778933 -0.38947,1.540933 -0.5588,2.286 -0.16933,0.745067 -0.254,1.337733 -0.254,1.778 0,0.270933 0.0339,0.474133 0.1016,0.6096 0.1016,0.135467 0.18627,0.237067 0.254,0.3048 0.6096,-0.1016 1.4224,-0.592667 2.4384,-1.4732 1.016,-0.9144 2.16747,-2.319867 3.4544,-4.2164 0.8128,-1.2192 1.55787,-2.421467 2.2352,-3.6068 0.67733,-1.2192 1.33773,-2.4384 1.9812,-3.6576 0.67733,-1.2192 1.3716,-2.472267 2.0828,-3.7592 0.7112,-1.286933 1.4732,-2.607733 2.286,-3.962399 0.44027,0 0.9144,0.0508 1.4224,0.1524 0.508,0.1016 0.99907,0.237067 1.4732,0.4064 0.47413,0.135467 0.88053,0.3048 1.2192,0.508 0.37253,0.169333 0.64347,0.355599 0.8128,0.558799 -1.04987,2.2352 -2.032,4.4196 -2.9464,6.5532 -0.9144,2.1336 -1.7272,4.318 -2.4384,6.5532 z" />
    </g>
    <rect
       ry="0.37542248"
       transform="rotate(35.231335)"
       y="-71.651459"
       x="154.82397"
       height="2.1946714"
       width="2.2217689"
       id="rect939-6"
       style="fill:#000000;fill-opacity:1;stroke:none;stroke-width:0;stroke-linejoin:bevel;stroke-miterlimit:4;stroke-dasharray:none;stroke-opacity:1" />
    <rect
       ry="0.37542248"
       transform="rotate(18.691113)"
       y="-38.439266"
       x="180.88152"
       height="2.1946714"
       width="2.2217689"
       id="rect939-7"
       style="fill:#505050;fill-opacity:1;stroke:none;stroke-width:0;stroke-linejoin:bevel;stroke-miterlimit:4;stroke-dasharray:none;stroke-opacity:1" />
    <rect
       ry="0.37542248"
       transform="rotate(24.710505)"
       y="10.143847"
       x="138.71555"
       height="2.1946714"
       width="2.2217689"
       id="rect939-5"
       style="fill:#000000;fill-opacity:1;stroke:none;stroke-width:0;stroke-linejoin:bevel;stroke-miterlimit:4;stroke-dasharray:none;stroke-opacity:1" />
    <rect
       ry="0.37542248"
       transform="rotate(46.971272)"
       y="-74.935585"
       x="159.20326"
       height="2.1946714"
       width="2.2217689"
       id="rect939-35"
       style="fill:#5a5a5a;fill-opacity:1;stroke:none;stroke-width:0;stroke-linejoin:bevel;stroke-miterlimit:4;stroke-dasharray:none;stroke-opacity:1" />
    <rect
       ry="0.37542248"
       transform="rotate(48.428799)"
       y="-89.32859"
       x="158.25803"
       height="2.1946714"
       width="2.2217689"
       id="rect939-62"
       style="fill:#000000;fill-opacity:1;stroke:none;stroke-width:0;stroke-linejoin:bevel;stroke-miterlimit:4;stroke-dasharray:none;stroke-opacity:1" />
  </g>
</svg>
